<?xml version="1.0" standalone="no"?>
<!DOCTYPE svg PUBLIC "-//W3C//DTD SVG 20010904//EN"
 "http://www.w3.org/TR/2001/REC-SVG-20010904/DTD/svg10.dtd">
<svg version="1.0" xmlns="http://www.w3.org/2000/svg"
 width="512.000000pt" height="512.000000pt" viewBox="0 0 512.000000 512.000000"
 preserveAspectRatio="xMidYMid meet">
<metadata>
Created by potrace 1.11, written by Peter Selinger 2001-2013
</metadata>
<g transform="translate(0.000000,512.000000) scale(0.100000,-0.100000)"
fill="#000000" stroke="none">
<path d="M0 3360 l0 -1759 58 -48 c32 -26 77 -64 101 -83 24 -19 48 -39 55
-45 6 -5 58 -48 116 -95 58 -46 107 -87 110 -90 3 -3 25 -21 50 -40 24 -19 52
-42 60 -50 9 -8 33 -28 54 -45 21 -16 44 -35 50 -40 6 -6 56 -46 111 -90 54
-44 106 -87 115 -95 9 -8 34 -28 55 -45 21 -16 43 -34 49 -40 6 -5 32 -27 58
-48 26 -21 53 -43 60 -50 7 -7 29 -24 50 -39 20 -15 42 -33 50 -40 7 -7 58
-49 112 -93 55 -44 111 -90 125 -102 14 -12 91 -75 171 -141 l145 -119 3 1915
c1 1054 -2 1920 -6 1924 -5 5 -298 193 -653 418 -354 225 -651 414 -659 420
-8 5 -55 35 -105 67 -49 31 -126 79 -170 108 -44 28 -99 64 -122 78 l-43 27 0
-1760z"/>
<path d="M5090 5103 c-35 -25 -710 -456 -753 -481 -38 -22 -552 -350 -562
-359 -5 -5 -17 -12 -25 -15 -8 -4 -98 -61 -200 -126 l-185 -119 -3 -1922 -2
-1922 92 76 c51 42 106 87 122 101 15 13 32 24 36 24 5 0 10 4 12 9 2 5 59 54
128 111 69 56 134 109 145 118 25 21 115 93 133 107 7 6 21 17 30 26 9 8 53
44 97 80 44 35 82 66 85 69 3 3 52 44 110 90 58 47 110 90 116 95 6 6 25 21
43 35 18 14 42 33 54 44 12 10 42 35 67 55 25 20 47 38 50 41 3 3 28 24 55 45
28 22 52 42 55 45 3 3 19 16 36 30 52 42 105 85 202 164 l92 77 0 1759 c0 968
-1 1760 -3 1760 -1 0 -14 -8 -27 -17z"/>
<path d="M658 5055 c-2 -2 -41 -5 -88 -8 -47 -3 -87 -6 -90 -6 -3 -1 743 -450
805 -485 11 -6 194 -116 407 -244 l386 -232 481 0 480 0 168 102 c92 55 177
106 188 112 32 18 247 147 285 171 19 12 241 146 493 296 326 195 452 275 440
280 -43 15 -539 20 -658 6 -269 -31 -604 -152 -888 -321 -43 -25 -81 -46 -83
-46 -3 0 -53 -32 -112 -71 -110 -74 -209 -149 -275 -213 l-38 -36 -32 33 c-80
83 -270 217 -467 329 -263 150 -473 237 -690 287 -84 19 -103 22 -230 40 -59
8 -474 13 -482 6z"/>
<path d="M2080 1920 l0 -1920 480 0 480 0 0 1920 0 1920 -480 0 -480 0 0
-1920z"/>
</g>
</svg>
